<svg xmlns="http://www.w3.org/2000/svg" viewBox="0 0 48 48" width="48" height="48" preserveAspectRatio="xMidYMid meet" style="width: 100%; height: 100%;"><defs><clipPath id="animationMask_tWu5tR2A2f"><rect width="48" height="48" x="0" y="0"></rect></clipPath><mask id="KRXPQJzGiC"><rect fill="#fff" width="48" height="48" x="-24" y="-24"></rect><path fill="#000000" clip-rule="nonzero" d=" M-7.77,-10.599 C-7.77,-10.599 -9.19,-9.189 -9.19,-9.189 C-9.19,-9.189 -9.186,-9.192 -9.186,-9.192 C-9.186,-9.192 -7.769,-10.6 -7.769,-10.6 C-7.769,-10.6 -7.77,-10.599 -7.77,-10.599" fill-opacity="1"></path></mask></defs><g clip-path="url(#animationMask_tWu5tR2A2f)"><g mask="url(#KRXPQJzGiC)" transform="matrix(1.35,0,0,1.35,24,24)" opacity="1" style="user-select: none;"><g opacity="1" transform="matrix(1,0,0,1,0,0)"><g opacity="0" transform="matrix(1,0,0,1,0,0)"><path class="fill bkbMM" fill="rgb(95,99,104)" fill-opacity="1" d="M0 0 M-9.19,-9.189 C-9.19,-9.189 -10.61,-7.779 -10.61,-7.779 C-10.61,-7.779 -10.608,-7.78 -10.608,-7.78 C-10.608,-7.78 -9.188,-9.188 -9.188,-9.188 C-9.188,-9.188 -9.19,-9.189 -9.19,-9.189z"></path></g><g opacity="1" transform="matrix(1,0,0,1,0,0)"><path class="fill bkbMM" fill="rgb(95,99,104)" fill-opacity="1" d="M0 0 M4,-2.31 C4,-2.31 4,6 4,6 C4,6 -8,6 -8,6 C-8,6 -8,-6 -8,-6 C-8,-6 4,-6 4,-6 C4,-6 4,-2.31 4,-2.31zM0 0 M6,-1.52 C6,-1.52 6,-6 6,-6 C6,-7.1 5.1,-8 4,-8 C4,-8 -8,-8 -8,-8 C-9.1,-8 -10,-7.1 -10,-6 C-10,-6 -10,6 -10,6 C-10,7.1 -9.1,8 -8,8 C-8,8 4,8 4,8 C5.1,8 6,7.1 6,6 C6,6 6,1.52 6,1.52 C6,1.52 10,5.5 10,5.5 C10,5.5 10,-5.5 10,-5.5 C10,-5.5 6,-1.52 6,-1.52z"></path></g></g></g></g></svg>