<svg xmlns="http://www.w3.org/2000/svg" viewBox="0 0 48 48" width="48" height="48" preserveAspectRatio="xMidYMid meet" style="width: 100%; height: 100%;"><defs><clipPath id="animationMask_hIPS4N9MWR"><rect width="48" height="48" x="0" y="0"></rect></clipPath><mask id="681HUqKWh5"><rect fill="#fff" width="48" height="48" x="-24" y="-24"></rect><path fill="#000000" clip-rule="nonzero" d=" M-7.77,-10.111 C-7.77,-10.111 -9.187,-8.694 -9.187,-8.694 C-9.187,-8.694 -9.183,-8.696 -9.183,-8.696 C-9.183,-8.696 -7.766,-10.113 -7.766,-10.113 C-7.766,-10.113 -7.77,-10.111 -7.77,-10.111" fill-opacity="1"></path></mask></defs><g clip-path="url(#animationMask_hIPS4N9MWR)"><g mask="url(#681HUqKWh5)" transform="matrix(1.35,0,0,1.35,24,24)" opacity="1" style="user-select: none;"><g opacity="1" transform="matrix(1,0,0,1,0,0)"><g opacity="0" transform="matrix(1,0,0,1,0,0)"><path class="fill bkbMM" fill="rgb(95,99,104)" fill-opacity="1" d="M0 0 M-9.188,-8.693 C-9.188,-8.693 -10.605,-7.276 -10.605,-7.276 C-10.605,-7.276 -10.605,-7.276 -10.605,-7.276 C-10.605,-7.276 -9.188,-8.693 -9.188,-8.693 C-9.188,-8.693 -9.188,-8.693 -9.188,-8.693z"></path></g><g opacity="1" transform="matrix(1,0,0,1,0,0)"><path class="fill bkbMM" fill="rgb(95,99,104)" fill-opacity="1" d="M0 0 M5,-0.5 C5,2.26 2.76,4.5 0,4.5 C-2.76,4.5 -5,2.26 -5,-0.5 C-5,-0.5 -7,-0.5 -7,-0.5 C-7,3.03 -4.390000000000001,5.93 -1,6.42 C-1,6.42 -1,9.5 -1,9.5 C-1,9.5 1,9.5 1,9.5 C1,9.5 1,6.42 1,6.42 C4.390000000000001,5.93 7,3.03 7,-0.5 C7,-0.5 5,-0.5 5,-0.5zM0 0 M-1,-6.5 C-1,-7.05 -0.55,-7.5 0,-7.5 C0.55,-7.5 1,-7.05 1,-6.5 C1,-6.5 1,-0.5 1,-0.5 C1,0.050000000000000044 0.55,0.5 0,0.5 C-0.55,0.5 -1,0.050000000000000044 -1,-0.5 C-1,-0.5 -1,-6.5 -1,-6.5zM0 0 M0,2.5 C1.66,2.5 3,1.16 3,-0.5 C3,-0.5 3,-6.5 3,-6.5 C3,-8.16 1.66,-9.5 0,-9.5 C-1.66,-9.5 -3,-8.16 -3,-6.5 C-3,-6.5 -3,-0.5 -3,-0.5 C-3,1.16 -1.66,2.5 0,2.5z"></path></g></g></g></g></svg>